<svg width="101" height="101" viewBox="0 0 101 101" fill="none" xmlns="http://www.w3.org/2000/svg">
<g id="icons">
<path id="Union" fill-rule="evenodd" clip-rule="evenodd" d="M66.9143 17.4023L84.6226 34.069V84.069H83.5823L66.9156 84.0691L50.2489 84.069H33.581L16.9143 67.4023V17.4023H16.915H50.2483H66.9143Z" fill="#FCC400"/>
<path id="Star 1" d="M66.8548 34.0068L69.9957 39.0587L75.1882 40.3239L71.9369 45.0331L72.584 50.6735L66.8547 48.7256L60.9507 50.6735L61.7725 45.0331L58.5215 40.3239L63.7137 39.0587L66.8548 34.0068Z" fill="#003F87"/>
<path id="Star 2" d="M33.521 34.0068L36.6618 39.0587L41.8543 40.3239L38.603 45.0331L39.2501 50.6735L33.5208 48.7256L27.6169 50.6735L28.4386 45.0331L25.1876 40.3239L30.3799 39.0587L33.521 34.0068Z" fill="#003F87"/>
<path id="Union_2" fill-rule="evenodd" clip-rule="evenodd" d="M33.5823 59.0688L50.2489 59.0688L50.2489 75.7334C50.102 75.7334 49.953 75.7313 49.8061 75.7291H49.7976C46.9126 75.6525 44.2129 74.8434 41.8752 73.4808C41.741 73.4041 41.609 73.3254 41.477 73.2423C36.7376 70.3042 33.5823 65.0559 33.5823 59.0688ZM66.9164 59.0695L50.2498 59.0695V75.734C50.3967 75.734 50.5457 75.7319 50.6926 75.7298H50.7011C53.5861 75.6531 56.2858 74.8441 58.6235 73.4814C58.7577 73.4048 58.8897 73.326 59.0217 73.243C63.7611 70.3048 66.9164 65.0566 66.9164 59.0695Z" fill="#003F87"/>
<path id="Vector 8" d="M16.9141 34.069L33.5807 17.4023H16.9141V34.069Z" fill="#003F87"/>
<path id="Vector 9" d="M24 34.069L40.6667 17.4023H24V34.069Z" fill="#003F87"/>
<path id="Vector 10" d="M31.0859 34.069L47.7526 17.4023H31.0859V34.069Z" fill="#003F87"/>
<path id="Vector 11" d="M38.1719 34.069L54.8385 17.4023H38.1719V34.069Z" fill="#003F87"/>
</g>
</svg>
