<svg width="101" height="101" viewBox="0 0 101 101" fill="none" xmlns="http://www.w3.org/2000/svg">
<g id="icons">
<path id="Union" fill-rule="evenodd" clip-rule="evenodd" d="M66.9166 33.569H33.5833L16.9166 50.2357V41.9023V33.569L31.1425 19.3431C32.7053 17.7803 34.8249 16.9023 37.0351 16.9023H39.8333C45.2543 23.4076 55.2456 23.4076 60.6666 16.9023H63.4648C65.675 16.9023 67.7946 17.7803 69.3574 19.3431L83.5833 33.569V50.2357L66.9167 33.5692L66.9166 33.569ZM66.9167 33.5692L64.8334 58.5692H35.6667L33.5833 33.5692L66.9167 33.5692Z" fill="#FCC400"/>
<path id="Vector 5" d="M50.25 66.9023L33.5834 83.569H50.25V66.9023Z" fill="#003F87"/>
<path id="Vector 6" d="M50.25 66.9023L66.9166 83.569H50.25V66.9023Z" fill="#003F87"/>
<path id="Rectangle 108" d="M64.8334 58.5693L83.5834 83.5693H64.8334V58.5693Z" fill="#003F87"/>
<path id="Rectangle 109" d="M16.9166 83.5693L35.6666 58.5693V83.5693H16.9166Z" fill="#003F87"/>
</g>
</svg>
